<svg width="8" height="8" viewBox="0 0 8 8" fill="none" xmlns="http://www.w3.org/2000/svg">
<rect width="8" height="8" rx="3" fill="#19D16F"/>
<path d="M6.23661 2.40332C6.20562 2.37207 6.16875 2.34728 6.12813 2.33035C6.08751 2.31343 6.04395 2.30472 5.99994 2.30472C5.95594 2.30472 5.91237 2.31343 5.87175 2.33035C5.83113 2.34728 5.79426 2.37207 5.76328 2.40332L3.27994 4.88998L2.23661 3.84332C2.20444 3.81224 2.16645 3.7878 2.12484 3.7714C2.08322 3.755 2.03878 3.74695 1.99405 3.74773C1.94932 3.7485 1.90519 3.75808 1.86416 3.77591C1.82313 3.79374 1.78602 3.81948 1.75494 3.85165C1.72386 3.88382 1.69943 3.92181 1.68302 3.96342C1.66662 4.00504 1.65858 4.04948 1.65935 4.09421C1.66013 4.13894 1.6697 4.18307 1.68753 4.2241C1.70536 4.26513 1.7311 4.30224 1.76328 4.33332L3.04328 5.61332C3.07426 5.64456 3.11113 5.66936 3.15175 5.68628C3.19237 5.7032 3.23594 5.71192 3.27994 5.71192C3.32395 5.71192 3.36752 5.7032 3.40813 5.68628C3.44875 5.66936 3.48562 5.64456 3.51661 5.61332L6.23661 2.89332C6.27044 2.8621 6.29745 2.82422 6.31592 2.78205C6.33438 2.73989 6.34392 2.69435 6.34392 2.64832C6.34392 2.60228 6.33438 2.55675 6.31592 2.51458C6.29745 2.47242 6.27044 2.43453 6.23661 2.40332Z" fill="white"/>
</svg>
