<svg width="13" height="12" viewBox="0 0 13 12" fill="none" xmlns="http://www.w3.org/2000/svg">
<path d="M5.38341 1.33334H2.65071C2.2734 1.33334 1.96753 1.63182 1.96753 2.00001V4.66668C1.96753 5.03487 2.2734 5.33334 2.65071 5.33334H5.38341C5.76072 5.33334 6.06659 5.03487 6.06659 4.66668V2.00001C6.06659 1.63182 5.76072 1.33334 5.38341 1.33334Z" fill="#151875"/>
<path d="M10.8489 1.33334H8.11616C7.73885 1.33334 7.43298 1.63182 7.43298 2.00001V4.66668C7.43298 5.03487 7.73885 5.33334 8.11616 5.33334H10.8489C11.2262 5.33334 11.532 5.03487 11.532 4.66668V2.00001C11.532 1.63182 11.2262 1.33334 10.8489 1.33334Z" fill="#151875"/>
<path d="M5.38341 6.66666H2.65071C2.2734 6.66666 1.96753 6.96513 1.96753 7.33332V9.99999C1.96753 10.3682 2.2734 10.6667 2.65071 10.6667H5.38341C5.76072 10.6667 6.06659 10.3682 6.06659 9.99999V7.33332C6.06659 6.96513 5.76072 6.66666 5.38341 6.66666Z" fill="#151875"/>
<path d="M10.8489 6.66666H8.11616C7.73885 6.66666 7.43298 6.96513 7.43298 7.33332V9.99999C7.43298 10.3682 7.73885 10.6667 8.11616 10.6667H10.8489C11.2262 10.6667 11.532 10.3682 11.532 9.99999V7.33332C11.532 6.96513 11.2262 6.66666 10.8489 6.66666Z" fill="#151875"/>
</svg>
