<svg width="20" height="20" viewBox="0 0 20 20" fill="none" xmlns="http://www.w3.org/2000/svg">
<circle cx="10" cy="9.70874" r="9.70874" fill="#151875"/>
<path d="M14.8463 8.30046C14.8411 7.9083 14.7677 7.52003 14.6294 7.15302C14.5094 6.84346 14.3262 6.56232 14.0915 6.32756C13.8567 6.09281 13.5756 5.9096 13.266 5.78966C12.9037 5.65366 12.521 5.58012 12.1341 5.57218C11.636 5.54991 11.478 5.5437 10.2136 5.5437C8.9491 5.5437 8.78703 5.5437 8.29253 5.57218C7.90582 5.58018 7.52326 5.65372 7.16114 5.78966C6.85153 5.90952 6.57034 6.0927 6.33558 6.32746C6.10081 6.56222 5.91764 6.84341 5.79777 7.15302C5.6615 7.51503 5.58813 7.89767 5.58082 8.28441C5.55855 8.78305 5.55182 8.94098 5.55182 10.2054C5.55182 11.4699 5.55182 11.6315 5.58082 12.1265C5.58858 12.5138 5.66159 12.8959 5.79777 13.2589C5.91784 13.5684 6.10115 13.8495 6.33599 14.0842C6.57084 14.3188 6.85205 14.5019 7.16166 14.6218C7.52279 14.7632 7.90541 14.842 8.29305 14.8548C8.79169 14.877 8.94962 14.8838 10.2141 14.8838C11.4785 14.8838 11.6406 14.8838 12.1351 14.8548C12.522 14.8471 12.9048 14.7738 13.267 14.6378C13.5765 14.5177 13.8576 14.3345 14.0923 14.0997C14.3271 13.865 14.5103 13.5839 14.6304 13.2744C14.7666 12.912 14.8396 12.5298 14.8474 12.142C14.8696 11.6439 14.8763 11.486 14.8763 10.221C14.8753 8.95652 14.8753 8.796 14.8463 8.30046ZM10.2105 12.5966C8.888 12.5966 7.81667 11.5253 7.81667 10.2029C7.81667 8.8804 8.888 7.80907 10.2105 7.80907C10.8453 7.80907 11.4542 8.06128 11.9031 8.5102C12.352 8.95912 12.6042 9.56799 12.6042 10.2029C12.6042 10.8377 12.352 11.4466 11.9031 11.8955C11.4542 12.3444 10.8453 12.5966 10.2105 12.5966ZM12.6995 8.27872C12.3904 8.27872 12.1413 8.02914 12.1413 7.72053C12.1413 7.64726 12.1558 7.57471 12.1838 7.50702C12.2118 7.43933 12.2529 7.37782 12.3047 7.32601C12.3566 7.27421 12.4181 7.23311 12.4858 7.20507C12.5534 7.17703 12.626 7.1626 12.6993 7.1626C12.7725 7.1626 12.8451 7.17703 12.9128 7.20507C12.9805 7.23311 13.042 7.27421 13.0938 7.32601C13.1456 7.37782 13.1867 7.43933 13.2147 7.50702C13.2428 7.57471 13.2572 7.64726 13.2572 7.72053C13.2572 8.02914 13.0076 8.27872 12.6995 8.27872Z" fill="white"/>
<path d="M10.2105 11.7575C11.0692 11.7575 11.7654 11.0614 11.7654 10.2026C11.7654 9.34382 11.0692 8.64764 10.2105 8.64764C9.35169 8.64764 8.65552 9.34382 8.65552 10.2026C8.65552 11.0614 9.35169 11.7575 10.2105 11.7575Z" fill="white"/>
</svg>
