<svg width="13" height="12" viewBox="0 0 13 12" fill="none" xmlns="http://www.w3.org/2000/svg">
<g clip-path="url(#clip0_1_782)">
<path d="M1.94365 8.625H0.406504C0.304584 8.625 0.20684 8.66451 0.134772 8.73483C0.0627041 8.80516 0.0222168 8.90054 0.0222168 9L0.0222168 10.5C0.0222168 10.5995 0.0627041 10.6948 0.134772 10.7652C0.20684 10.8355 0.304584 10.875 0.406504 10.875H1.94365C2.04557 10.875 2.14332 10.8355 2.21538 10.7652C2.28745 10.6948 2.32794 10.5995 2.32794 10.5V9C2.32794 8.90054 2.28745 8.80516 2.21538 8.73483C2.14332 8.66451 2.04557 8.625 1.94365 8.625ZM1.94365 1.125H0.406504C0.304584 1.125 0.20684 1.16451 0.134772 1.23483C0.0627041 1.30516 0.0222168 1.40054 0.0222168 1.5L0.0222168 3C0.0222168 3.09946 0.0627041 3.19484 0.134772 3.26516C0.20684 3.33549 0.304584 3.375 0.406504 3.375H1.94365C2.04557 3.375 2.14332 3.33549 2.21538 3.26516C2.28745 3.19484 2.32794 3.09946 2.32794 3V1.5C2.32794 1.40054 2.28745 1.30516 2.21538 1.23483C2.14332 1.16451 2.04557 1.125 1.94365 1.125V1.125ZM1.94365 4.875H0.406504C0.304584 4.875 0.20684 4.91451 0.134772 4.98484C0.0627041 5.05516 0.0222168 5.15054 0.0222168 5.25L0.0222168 6.75C0.0222168 6.84946 0.0627041 6.94484 0.134772 7.01517C0.20684 7.08549 0.304584 7.125 0.406504 7.125H1.94365C2.04557 7.125 2.14332 7.08549 2.21538 7.01517C2.28745 6.94484 2.32794 6.84946 2.32794 6.75V5.25C2.32794 5.15054 2.28745 5.05516 2.21538 4.98484C2.14332 4.91451 2.04557 4.875 1.94365 4.875ZM11.9351 9H4.24937C4.14745 9 4.04971 9.03951 3.97764 9.10983C3.90557 9.18016 3.86509 9.27554 3.86509 9.375V10.125C3.86509 10.2245 3.90557 10.3198 3.97764 10.3902C4.04971 10.4605 4.14745 10.5 4.24937 10.5H11.9351C12.037 10.5 12.1348 10.4605 12.2068 10.3902C12.2789 10.3198 12.3194 10.2245 12.3194 10.125V9.375C12.3194 9.27554 12.2789 9.18016 12.2068 9.10983C12.1348 9.03951 12.037 9 11.9351 9ZM11.9351 1.5H4.24937C4.14745 1.5 4.04971 1.53951 3.97764 1.60984C3.90557 1.68016 3.86509 1.77554 3.86509 1.875V2.625C3.86509 2.72446 3.90557 2.81984 3.97764 2.89016C4.04971 2.96049 4.14745 3 4.24937 3H11.9351C12.037 3 12.1348 2.96049 12.2068 2.89016C12.2789 2.81984 12.3194 2.72446 12.3194 2.625V1.875C12.3194 1.77554 12.2789 1.68016 12.2068 1.60984C12.1348 1.53951 12.037 1.5 11.9351 1.5V1.5ZM11.9351 5.25H4.24937C4.14745 5.25 4.04971 5.28951 3.97764 5.35984C3.90557 5.43016 3.86509 5.52554 3.86509 5.625V6.375C3.86509 6.47446 3.90557 6.56984 3.97764 6.64017C4.04971 6.71049 4.14745 6.75 4.24937 6.75H11.9351C12.037 6.75 12.1348 6.71049 12.2068 6.64017C12.2789 6.56984 12.3194 6.47446 12.3194 6.375V5.625C12.3194 5.52554 12.2789 5.43016 12.2068 5.35984C12.1348 5.28951 12.037 5.25 11.9351 5.25Z" fill="#151875"/>
</g>
<defs>
<clipPath id="clip0_1_782">
<rect width="12.2972" height="12" fill="white" transform="translate(0.0222168)"/>
</clipPath>
</defs>
</svg>
