<svg width="14" height="14" viewBox="0 0 14 14" fill="none" xmlns="http://www.w3.org/2000/svg">
<path d="M10.0439 13.666H10.0626C10.4146 13.666 10.7473 13.5274 10.9993 13.2754L12.8073 11.4674C12.8692 11.4055 12.9184 11.332 12.9519 11.2512C12.9855 11.1703 13.0027 11.0836 13.0027 10.996C13.0027 10.9085 12.9855 10.8218 12.9519 10.7409C12.9184 10.66 12.8692 10.5866 12.8073 10.5247L10.1406 7.85804C10.0787 7.79608 10.0053 7.74692 9.9244 7.71338C9.84353 7.67984 9.75683 7.66257 9.66927 7.66257C9.58172 7.66257 9.49502 7.67984 9.41415 7.71338C9.33327 7.74692 9.2598 7.79608 9.19794 7.85804L8.13527 8.92071C7.64261 8.77404 6.72327 8.44071 6.14061 7.85804C5.55794 7.27537 5.22461 6.35604 5.07794 5.86337L6.14061 4.80071C6.20257 4.73885 6.25173 4.66538 6.28527 4.5845C6.31881 4.50363 6.33607 4.41693 6.33607 4.32937C6.33607 4.24182 6.31881 4.15512 6.28527 4.07425C6.25173 3.99337 6.20257 3.9199 6.14061 3.85804L3.47394 1.19137C3.34649 1.07108 3.17787 1.00406 3.00261 1.00406C2.82735 1.00406 2.65872 1.07108 2.53127 1.19137L0.723941 2.99937C0.470608 3.25271 0.327941 3.60071 0.333274 3.95604C0.348608 4.90537 0.599941 8.20271 3.19861 10.8014C5.79727 13.4 9.09461 13.6507 10.0439 13.666ZM3.00327 2.60537L4.72727 4.32937L3.86527 5.19137C3.78683 5.2696 3.72921 5.36621 3.69765 5.47241C3.66609 5.5786 3.66161 5.691 3.68461 5.79937C3.70061 5.87604 4.09194 7.69404 5.19861 8.80071C6.30527 9.90737 8.12327 10.2987 8.19994 10.3147C8.30831 10.3378 8.42074 10.3334 8.52696 10.3018C8.63318 10.2703 8.72978 10.2126 8.80794 10.134L9.66994 9.27204L11.3939 10.996L10.0566 12.3327C9.22461 12.3187 6.37794 12.0954 4.14127 9.85804C1.89727 7.61404 1.67994 4.75737 1.66661 3.94204L3.00327 2.60537ZM12.3326 6.33271H13.6659C13.6659 2.91271 11.0839 0.333374 7.65927 0.333374V1.66671C10.3673 1.66671 12.3326 3.62871 12.3326 6.33271Z" fill="white"/>
</svg>
