<svg width="14" height="14" viewBox="0 0 14 14" fill="none" xmlns="http://www.w3.org/2000/svg">
<path d="M8.95167 5.66667H7.01463V3.66667C7.01463 3.48986 6.9466 3.32029 6.82551 3.19526C6.70442 3.07024 6.54019 3 6.36894 3C6.1977 3 6.03347 3.07024 5.91238 3.19526C5.79129 3.32029 5.72326 3.48986 5.72326 3.66667V5.66667H3.78622C3.61497 5.66667 3.45074 5.73691 3.32965 5.86193C3.20856 5.98695 3.14053 6.15652 3.14053 6.33333C3.14053 6.51015 3.20856 6.67971 3.32965 6.80474C3.45074 6.92976 3.61497 7 3.78622 7H5.72326V9C5.72326 9.17681 5.79129 9.34638 5.91238 9.47141C6.03347 9.59643 6.1977 9.66667 6.36894 9.66667C6.54019 9.66667 6.70442 9.59643 6.82551 9.47141C6.9466 9.34638 7.01463 9.17681 7.01463 9V7H8.95167C9.12292 7 9.28715 6.92976 9.40824 6.80474C9.52933 6.67971 9.59735 6.51015 9.59735 6.33333C9.59735 6.15652 9.52933 5.98695 9.40824 5.86193C9.28715 5.73691 9.12292 5.66667 8.95167 5.66667ZM13.2842 12.5267L10.8887 10.0733C11.8186 8.87627 12.2689 7.35687 12.147 5.82753C12.0252 4.2982 11.3405 2.87519 10.2337 1.8511C9.12689 0.827005 7.68214 0.279674 6.1965 0.321648C4.71086 0.363622 3.29726 0.991709 2.24636 2.07676C1.19546 3.16182 0.58714 4.62136 0.546488 6.15528C0.505836 7.68921 1.03594 9.18091 2.02779 10.3237C3.01965 11.4664 4.39787 12.1734 5.87906 12.2992C7.36026 12.425 8.83184 11.9601 9.99122 11L12.3673 13.4533C12.4274 13.5158 12.4988 13.5654 12.5774 13.5993C12.6561 13.6331 12.7405 13.6505 12.8258 13.6505C12.911 13.6505 12.9954 13.6331 13.0741 13.5993C13.1528 13.5654 13.2242 13.5158 13.2842 13.4533C13.4006 13.329 13.4656 13.1629 13.4656 12.99C13.4656 12.8171 13.4006 12.651 13.2842 12.5267V12.5267ZM6.36894 11C5.47502 11 4.60117 10.7263 3.85789 10.2135C3.11462 9.70075 2.53531 8.97191 2.19322 8.11919C1.85113 7.26647 1.76162 6.32816 1.93602 5.42291C2.11041 4.51767 2.54088 3.68615 3.17298 3.0335C3.80508 2.38086 4.61043 1.9364 5.48718 1.75634C6.36393 1.57627 7.27271 1.66869 8.09859 2.0219C8.92447 2.37511 9.63036 2.97324 10.127 3.74067C10.6236 4.5081 10.8887 5.41035 10.8887 6.33333C10.8887 7.57101 10.4125 8.758 9.56491 9.63317C8.71728 10.5083 7.56766 11 6.36894 11V11Z" fill="#151875"/>
</svg>
