<svg width="14" height="14" viewBox="0 0 14 14" fill="none" xmlns="http://www.w3.org/2000/svg">
<path d="M12.2834 2.07333C11.5979 1.36534 10.689 0.934884 9.72213 0.860254C8.75523 0.785624 7.79449 1.07177 7.01464 1.66667C6.19311 1.03576 5.17057 0.749674 4.15293 0.866025C3.13529 0.982376 2.19814 1.49252 1.5302 2.29372C0.862267 3.09493 0.513157 4.12768 0.553176 5.18401C0.593194 6.24034 1.01937 7.24178 1.74588 7.98667L6.55621 12.9533C6.61623 13.0158 6.68765 13.0654 6.76633 13.0993C6.84501 13.1331 6.92941 13.1505 7.01464 13.1505C7.09988 13.1505 7.18428 13.1331 7.26296 13.0993C7.34164 13.0654 7.41305 13.0158 7.47308 12.9533L12.2834 7.98667C12.6596 7.59848 12.9581 7.13756 13.1617 6.63024C13.3653 6.12293 13.4701 5.57915 13.4701 5.03C13.4701 4.48085 13.3653 3.93707 13.1617 3.42976C12.9581 2.92244 12.6596 2.46152 12.2834 2.07333V2.07333ZM11.373 7.04667L7.01464 11.54L2.65629 7.04667C2.27222 6.64847 2.01059 6.14203 1.90422 5.59089C1.79785 5.03976 1.85147 4.46846 2.05836 3.94866C2.26525 3.42887 2.61619 2.98373 3.06717 2.66908C3.51814 2.35443 4.04907 2.18429 4.59334 2.18C5.32045 2.18184 6.01713 2.48156 6.53038 3.01333C6.59041 3.07582 6.66182 3.12542 6.7405 3.15926C6.81918 3.19311 6.90358 3.21053 6.98882 3.21053C7.07405 3.21053 7.15845 3.19311 7.23713 3.15926C7.31581 3.12542 7.38723 3.07582 7.44725 3.01333C7.97563 2.54059 8.65822 2.29276 9.35688 2.32002C10.0555 2.34727 10.7181 2.64757 11.2104 3.16013C11.7027 3.67269 11.9881 4.35923 12.0087 5.08079C12.0293 5.80236 11.7836 6.50506 11.3213 7.04667H11.373Z" fill="#151875"/>
</svg>
