<svg width="13" height="12" viewBox="0 0 13 12" fill="none" xmlns="http://www.w3.org/2000/svg">
<path d="M0.880646 0.833336C0.880646 0.700728 0.931666 0.573551 1.02248 0.479782C1.1133 0.386014 1.23647 0.333336 1.36491 0.333336H1.7252C2.3386 0.333336 2.70663 0.759336 2.91648 1.15534C3.05659 1.41934 3.15797 1.72534 3.23739 2.00267C3.25887 2.00092 3.28041 2.00003 3.30195 2H11.3717C11.9076 2 12.295 2.52934 12.1478 3.062L10.9675 7.33467C10.8617 7.71791 10.6378 8.05511 10.3297 8.29521C10.0217 8.53531 9.64627 8.66525 9.26031 8.66534H5.41979C5.03076 8.66535 4.6525 8.53345 4.34313 8.28992C4.03377 8.04638 3.81043 7.70468 3.70744 7.31734L3.21672 5.46934L2.40316 2.63734L2.40252 2.632C2.30179 2.254 2.20752 1.9 2.06676 1.636C1.93182 1.37934 1.82334 1.33334 1.72584 1.33334H1.36491C1.23647 1.33334 1.1133 1.28066 1.02248 1.18689C0.931666 1.09312 0.880646 0.965944 0.880646 0.833336ZM4.15619 5.22667L4.6411 7.05267C4.73795 7.414 5.05627 7.66534 5.41979 7.66534H9.26031C9.43574 7.66533 9.6064 7.60631 9.74644 7.49721C9.88648 7.3881 9.98828 7.23485 10.0364 7.06067L11.158 3H3.51826L4.14715 5.19134L4.15619 5.22667Z" fill="#151875"/>
<path d="M6.36895 10.6667C6.36895 11.0203 6.2329 11.3594 5.99072 11.6095C5.74854 11.8595 5.42008 12 5.07759 12C4.7351 12 4.40663 11.8595 4.16446 11.6095C3.92228 11.3594 3.78622 11.0203 3.78622 10.6667C3.78622 10.313 3.92228 9.97391 4.16446 9.72386C4.40663 9.47381 4.7351 9.33334 5.07759 9.33334C5.42008 9.33334 5.74854 9.47381 5.99072 9.72386C6.2329 9.97391 6.36895 10.313 6.36895 10.6667V10.6667ZM5.40043 10.6667C5.40043 10.5783 5.36642 10.4935 5.30587 10.431C5.24533 10.3685 5.16321 10.3333 5.07759 10.3333C4.99197 10.3333 4.90985 10.3685 4.84931 10.431C4.78876 10.4935 4.75475 10.5783 4.75475 10.6667C4.75475 10.7551 4.78876 10.8399 4.84931 10.9024C4.90985 10.9649 4.99197 11 5.07759 11C5.16321 11 5.24533 10.9649 5.30587 10.9024C5.36642 10.8399 5.40043 10.7551 5.40043 10.6667Z" fill="#151875"/>
<path d="M10.8887 10.6667C10.8887 11.0203 10.7527 11.3594 10.5105 11.6095C10.2683 11.8595 9.93986 12 9.59736 12C9.25487 12 8.92641 11.8595 8.68423 11.6095C8.44205 11.3594 8.306 11.0203 8.306 10.6667C8.306 10.313 8.44205 9.97391 8.68423 9.72386C8.92641 9.47381 9.25487 9.33334 9.59736 9.33334C9.93986 9.33334 10.2683 9.47381 10.5105 9.72386C10.7527 9.97391 10.8887 10.313 10.8887 10.6667V10.6667ZM9.9202 10.6667C9.9202 10.5783 9.88619 10.4935 9.82565 10.431C9.7651 10.3685 9.68299 10.3333 9.59736 10.3333C9.51174 10.3333 9.42963 10.3685 9.36908 10.431C9.30854 10.4935 9.27452 10.5783 9.27452 10.6667C9.27452 10.7551 9.30854 10.8399 9.36908 10.9024C9.42963 10.9649 9.51174 11 9.59736 11C9.68299 11 9.7651 10.9649 9.82565 10.9024C9.88619 10.8399 9.9202 10.7551 9.9202 10.6667Z" fill="#151875"/>
</svg>
