<svg width="20" height="20" viewBox="0 0 20 20" fill="none" xmlns="http://www.w3.org/2000/svg">
<circle cx="10.2913" cy="9.70874" r="9.70874" fill="#151875"/>
<g clip-path="url(#clip0_0_139)">
<path d="M16.7572 6.13373C16.3248 6.32532 15.8603 6.45477 15.372 6.51328C15.8759 6.21181 16.2528 5.73734 16.4325 5.17839C15.9591 5.45955 15.4411 5.65746 14.9008 5.7635C14.5375 5.3756 14.0563 5.1185 13.5319 5.0321C13.0076 4.9457 12.4693 5.03485 12.0008 5.28571C11.5322 5.53656 11.1596 5.93508 10.9408 6.4194C10.722 6.90372 10.6691 7.44674 10.7905 7.96415C9.83142 7.91599 8.89314 7.6667 8.03659 7.23245C7.18005 6.7982 6.42438 6.1887 5.81864 5.4435C5.61152 5.80079 5.49243 6.21503 5.49243 6.65619C5.4922 7.05334 5.59 7.44441 5.77715 7.79469C5.96431 8.14498 6.23503 8.44365 6.56531 8.66422C6.18228 8.65203 5.8077 8.54853 5.47275 8.36234V8.39341C5.47271 8.95042 5.66539 9.4903 6.01809 9.92143C6.37079 10.3526 6.86178 10.6484 7.40777 10.7587C7.05244 10.8549 6.67992 10.869 6.31832 10.8001C6.47236 11.2794 6.77242 11.6985 7.1765 11.9988C7.58058 12.2991 8.06844 12.4655 8.57178 12.4747C7.71732 13.1455 6.66208 13.5093 5.57579 13.5077C5.38337 13.5078 5.19111 13.4965 5 13.4741C6.10264 14.183 7.3862 14.5593 8.69709 14.5578C13.1346 14.5578 15.5605 10.8825 15.5605 7.6949C15.5605 7.59134 15.5579 7.48674 15.5533 7.38318C16.0251 7.04194 16.4324 6.61937 16.7561 6.13528L16.7572 6.13373Z" fill="white"/>
</g>
<defs>
<clipPath id="clip0_0_139">
<rect width="12.4272" height="12.4272" fill="white" transform="translate(3.68982 3.10681)"/>
</clipPath>
</defs>
</svg>
